<svg height="24" viewBox="0 0 24 24" width="24" xmlns="http://www.w3.org/2000/svg"><g fill="#fff" opacity="0" stroke="#707070"><path d="m0 0h24v24h-24z" stroke="none"/><path d="m.5.5h23v23h-23z" fill="none"/></g><path d="m6.15 90.527-2.937-11.5h-3.213v-1.807h4.617l.692 2.711 18.691-.014-1.987 10.61zm-.379-8.789 1.783 6.982h12.958l1.31-6.993z" transform="translate(0 -75.167)"/><path d="m62.864 613.936a2.891 2.891 0 1 1 0-5.781h10.89a2.891 2.891 0 1 1 -2.68 1.808h-5.53a2.89 2.89 0 0 1 -2.68 3.974zm9.808-2.891a1.083 1.083 0 1 0 1.083-1.083 1.084 1.084 0 0 0 -1.084 1.084zm-10.891 0a1.083 1.083 0 1 0 1.083-1.083 1.084 1.084 0 0 0 -1.083 1.084z" transform="translate(-54.239 -591.989)"/></svg>