<?xml version="1.0" encoding="utf-8"?>
<!-- Generator: Adobe Illustrator 22.0.1, SVG Export Plug-In . SVG Version: 6.00 Build 0)  -->
<svg version="1.1" id="Layer_1" xmlns="http://www.w3.org/2000/svg" xmlns:xlink="http://www.w3.org/1999/xlink" x="0px" y="0px"
	 viewBox="0 0 100 125" style="enable-background:new 0 0 100 125;" xml:space="preserve">
<g>
	<path d="M35.2,63.7l-9,2.7c-5.9,1.8-10.8,5.8-13.6,11.2L9.8,83c-1.2,2.3,0.4,5,3,5h70.1c2.6,0,4.2-2.8,3-5L83,77.6
		c-2.9-5.4-7.8-9.4-13.6-11.2l-9-2.7c-2.6-0.8-4.1-3.6-3.2-6.2c0.2-0.5,0.5-1,0.8-1.5l5.9-9.2c2.3-3.6,3.2-8,2.6-12.2L65.6,29
		c-0.7-4.7-3.3-8.9-7.2-11.7c-6.3-4.5-14.9-4.4-21.1,0.3l0,0c-3.4,2.6-5.8,6.3-6.6,10.5l-1.2,6c-0.9,4.5-0.1,9.2,2.4,13.1l5.6,8.8
		c0.4,0.4,0.7,0.9,0.8,1.5C39.3,60,37.9,62.9,35.2,63.7z"/>
</g>
</svg>
